<svg xmlns="http://www.w3.org/2000/svg" width="512" height="512" viewBox="0 0 512 512">
  <defs>
    <linearGradient id="bg" x1="0" y1="0" x2="0" y2="1">
      <stop offset="0" stop-color="#15466a"/>
      <stop offset="0.5" stop-color="#0a2a3e"/>
      <stop offset="1" stop-color="#061722"/>
    </linearGradient>
    <linearGradient id="koi" x1="0" y1="0" x2="1" y2="1">
      <stop offset="0" stop-color="#ffd9a8"/>
      <stop offset="1" stop-color="#ff8a3d"/>
    </linearGradient>
    <radialGradient id="glow" cx="0.5" cy="0.35" r="0.8">
      <stop offset="0" stop-color="#3fd6ff" stop-opacity="0.35"/>
      <stop offset="1" stop-color="#3fd6ff" stop-opacity="0"/>
    </radialGradient>
  </defs>

  <rect width="512" height="512" rx="112" fill="url(#bg)"/>
  <rect width="512" height="512" rx="112" fill="url(#glow)"/>

  <!-- ripple rings -->
  <g fill="none" stroke="#7fe3ff" stroke-opacity="0.22" stroke-width="6">
    <circle cx="256" cy="262" r="120"/>
    <circle cx="256" cy="262" r="170"/>
  </g>

  <!-- koi fish (top-down) -->
  <g transform="translate(256 262) rotate(28)">
    <!-- tail -->
    <path d="M -8 70 C -34 110, -54 118, -64 150 C -28 130, -8 132, 0 150 C 8 132, 28 130, 64 150 C 54 118, 34 110, 8 70 Z" fill="url(#koi)" opacity="0.92"/>
    <!-- body -->
    <ellipse cx="0" cy="0" rx="58" ry="92" fill="url(#koi)"/>
    <!-- red patches -->
    <ellipse cx="-10" cy="-44" rx="26" ry="30" fill="#e23b22"/>
    <ellipse cx="16" cy="22" rx="22" ry="34" fill="#e23b22"/>
    <!-- head sheen -->
    <ellipse cx="-14" cy="-58" rx="14" ry="18" fill="#fff" opacity="0.25"/>
    <!-- eyes -->
    <circle cx="-20" cy="-78" r="6" fill="#0a1722"/>
    <circle cx="20" cy="-78" r="6" fill="#0a1722"/>
  </g>
</svg>
