<svg xmlns="http://www.w3.org/2000/svg" width="512" height="512" viewBox="0 0 512 512">
  <defs>
    <linearGradient id="bg" x1="0" y1="0" x2="0" y2="1">
      <stop offset="0" stop-color="#f6f1e7"/>
      <stop offset="1" stop-color="#ece2d2"/>
    </linearGradient>
    <linearGradient id="koi" x1="0" y1="0" x2="1" y2="1">
      <stop offset="0" stop-color="#d4794f"/>
      <stop offset="1" stop-color="#bb5635"/>
    </linearGradient>
  </defs>
  <rect width="512" height="512" rx="112" fill="url(#bg)"/>
  <g fill="none" stroke="#c2603f" stroke-opacity="0.18" stroke-width="6">
    <circle cx="256" cy="262" r="120"/>
    <circle cx="256" cy="262" r="170"/>
  </g>
  <g transform="translate(256 262) rotate(28)">
    <path d="M -8 70 C -34 110, -54 118, -64 150 C -28 130, -8 132, 0 150 C 8 132, 28 130, 64 150 C 54 118, 34 110, 8 70 Z" fill="url(#koi)" opacity="0.92"/>
    <ellipse cx="0" cy="0" rx="58" ry="92" fill="url(#koi)"/>
    <ellipse cx="-10" cy="-44" rx="24" ry="28" fill="#f6f1e7"/>
    <ellipse cx="16" cy="22" rx="20" ry="30" fill="#f6f1e7"/>
    <ellipse cx="-14" cy="-58" rx="13" ry="17" fill="#fff" opacity="0.3"/>
    <circle cx="-20" cy="-78" r="6" fill="#3a2418"/>
    <circle cx="20" cy="-78" r="6" fill="#3a2418"/>
  </g>
</svg>
